<?xml version="1.0" encoding="UTF-8"?>
<svg id="Layer_1" xmlns="http://www.w3.org/2000/svg" version="1.1" viewBox="0 0 208.17 208.17">
  <!-- Generator: Adobe Illustrator 29.0.1, SVG Export Plug-In . SVG Version: 2.1.0 Build 192)  -->
  <defs>
    <style>
      .st0 {
        fill: #f37771;
      }

      .st1 {
        fill: #ffffff;
      }
    </style>
  </defs>
  <circle class="st1" cx="104.09" cy="104.09" r="104.09"/>
  <path class="st0" d="M52.37,132.14c.53,1.27,1.54,2.29,2.81,2.81.63.27,1.3.41,1.98.42h26.06c2.88,0,5.21-2.33,5.21-5.21s-2.33-5.21-5.21-5.21h-13.5l29.13-29.13,17.15,17.2c2.03,2.04,5.33,2.06,7.37.03.01-.01.02-.02.03-.03l31.27-31.27c2.04-2.03,2.06-5.33.03-7.37-.01-.01-.02-.02-.03-.03-2.03-2.04-5.33-2.06-7.37-.03-.01.01-.02.02-.03.03l-27.57,27.62-17.15-17.2c-2.03-2.04-5.33-2.06-7.37-.03-.01.01-.02.02-.03.03l-32.78,32.83v-13.5c0-2.88-2.33-5.21-5.21-5.21s-5.21,2.33-5.21,5.21v26.06c0,.68.15,1.35.42,1.98Z"/>
</svg>